<svg width="20" height="20" viewBox="0 0 20 20" fill="none" xmlns="http://www.w3.org/2000/svg">
<g clip-path="url(#clip0_1022_2002)">
<path fill-rule="evenodd" clip-rule="evenodd" d="M6.41298 3.72801C7.8023 0.748607 11.3439 -0.540412 14.3233 0.848907C17.3027 2.23823 18.5917 5.77978 17.2024 8.75918L13.7812 16.096C12.3918 19.0754 8.8503 20.3644 5.87089 18.9751C2.89149 17.5857 1.60247 14.0442 2.99179 11.0648L6.41298 3.72801ZM12.3544 6.76125L15.807 8.37123L14.4989 11.1765L11.0463 9.56649L12.3544 6.76125ZM16.2673 7.00961L12.9582 5.46653L14.3432 2.49632C15.8242 3.49576 16.5661 5.27638 16.2673 7.00961ZM8.35427 3.3197C9.48996 1.97673 11.3309 1.4005 13.0485 1.89258L11.6634 4.86279L8.35427 3.3197ZM7.14569 17.9314L8.53072 14.9612L11.8399 16.5043C10.7042 17.8472 8.86328 18.4235 7.14569 17.9314ZM5.85097 17.3277C4.36996 16.3282 3.62807 14.5476 3.92684 12.8144L7.236 14.3574L5.85097 17.3277ZM13.8952 12.4712L10.4426 10.8612L9.13446 13.6665L12.5871 15.2764L13.8952 12.4712ZM11.0597 6.15751L7.60708 4.54754L6.29898 7.35278L9.75158 8.96275L11.0597 6.15751ZM7.83974 13.0627L4.38714 11.4527L5.69524 8.6475L9.14784 10.2575L7.83974 13.0627Z" fill="#3E5481"/>
<path d="M2.38096 16.9048C2.38096 17.2992 2.06117 17.619 1.66668 17.619C1.27219 17.619 0.952393 17.2992 0.952393 16.9048C0.952393 16.5103 1.27219 16.1905 1.66668 16.1905C2.06117 16.1905 2.38096 16.5103 2.38096 16.9048Z" fill="#3E5481"/>
<path d="M16.6667 15.4762C16.6667 15.8707 16.3469 16.1905 15.9524 16.1905C15.5579 16.1905 15.2381 15.8707 15.2381 15.4762C15.2381 15.0817 15.5579 14.7619 15.9524 14.7619C16.3469 14.7619 16.6667 15.0817 16.6667 15.4762Z" fill="#3E5481"/>
<path d="M18.8095 13.0952C18.8095 13.4897 18.4897 13.8095 18.0952 13.8095C17.7008 13.8095 17.381 13.4897 17.381 13.0952C17.381 12.7007 17.7008 12.3809 18.0952 12.3809C18.4897 12.3809 18.8095 12.7007 18.8095 13.0952Z" fill="#3E5481"/>
<path d="M19.5238 17.619C19.5238 18.0135 19.204 18.3333 18.8095 18.3333C18.415 18.3333 18.0952 18.0135 18.0952 17.619C18.0952 17.2246 18.415 16.9048 18.8095 16.9048C19.204 16.9048 19.5238 17.2246 19.5238 17.619Z" fill="#3E5481"/>
</g>
<defs>
<clipPath id="clip0_1022_2002">
<rect width="20" height="20" fill="white"/>
</clipPath>
</defs>
</svg>
