<svg width="20" height="20" viewBox="0 0 20 20" fill="none" xmlns="http://www.w3.org/2000/svg">
<path fill-rule="evenodd" clip-rule="evenodd" d="M13.469 3.99284C13.08 4.82708 13.441 5.81871 14.2752 6.20772C15.1094 6.59673 16.1011 6.2358 16.4901 5.40157C16.8791 4.56734 16.5182 3.5757 15.6839 3.18669C14.8497 2.79769 13.858 3.15861 13.469 3.99284ZM13.0591 7.1255C11.9582 6.25634 11.5558 4.71558 12.1743 3.3891C12.8968 1.83981 14.7384 1.16952 16.2877 1.89197C17.8369 2.61442 18.5072 4.45602 17.7848 6.00531C17.1662 7.3318 15.7273 8.01392 14.3538 7.72925L10.2939 16.4358C9.29356 18.581 6.74364 19.5091 4.59847 18.5088C2.4533 17.5085 1.5252 14.9585 2.52551 12.8134L3.63237 10.4397L4.4676 13.719L3.82024 13.4171C3.15337 14.8472 3.77209 16.5472 5.20221 17.214C6.63232 17.8809 8.33227 17.2622 8.99914 15.8321L13.0591 7.1255Z" fill="#3E5481"/>
</svg>
