<svg width="20" height="20" viewBox="0 0 20 20" fill="none" xmlns="http://www.w3.org/2000/svg">
<path d="M14.9094 3.46819C14.5716 4.19267 13.8361 4.60481 13.084 4.56589C12.8464 4.5536 12.6071 4.49626 12.3781 4.38951C12.1492 4.28276 11.9515 4.1363 11.7893 3.96215C11.2761 3.41105 11.119 2.5827 11.4568 1.85822C11.9014 0.90481 13.0347 0.492324 13.9881 0.936906C14.9415 1.38149 15.354 2.51478 14.9094 3.46819Z" fill="#3E5481"/>
<path fill-rule="evenodd" clip-rule="evenodd" d="M3.23691 12.7253C2.123 15.1141 3.15222 17.9516 5.53574 19.0631C7.91926 20.1745 10.7545 19.139 11.8684 16.7502L13.5693 13.1028C14.5803 10.9345 13.8257 8.3965 11.8952 7.11522L13.084 4.56589C12.8464 4.5536 12.6071 4.49626 12.3781 4.38951C12.1492 4.28276 11.9515 4.1363 11.7893 3.96215L10.6005 6.51148C8.37813 5.85626 5.94884 6.90956 4.93775 9.07785L3.23691 12.7253ZM10.5737 16.1465C9.79395 17.8187 7.80928 18.5435 6.14082 17.7655C4.47235 16.9875 3.7519 15.0012 4.53164 13.3291L5.03028 12.2597L11.0723 15.0772L10.5737 16.1465ZM6.23248 9.68159C7.01222 8.00943 8.99688 7.28458 10.6653 8.0626C12.3338 8.84062 13.0543 10.8269 12.2745 12.499L11.6761 13.7824L5.63402 10.965L6.23248 9.68159Z" fill="#3E5481"/>
</svg>
