<svg width="130" height="117" viewBox="0 0 130 117" fill="none" xmlns="http://www.w3.org/2000/svg">
<path fill-rule="evenodd" clip-rule="evenodd" d="M34.6086 41.324C30.4605 39.904 26.7965 38.6497 25.2 39.6405C24.4667 40.0956 24.5906 41.2542 24.7243 42.5049C24.8946 44.0978 25.0808 45.8401 23.5329 46.4689C21.4926 47.2978 18.0049 48.7804 15.4062 50.4004C14.1929 51.1567 13.1154 51.927 12.1814 52.5946C10.6212 53.7098 9.46149 54.5388 8.73817 54.5388C7.8423 54.5388 6.63831 53.4679 5.35802 52.3291C3.66037 50.8192 1.82857 49.1899 0.403084 49.7797C-0.292053 50.0673 0.201027 51.7893 0.795242 53.8645C1.28303 55.5681 1.83897 57.5096 1.86172 59.0911C1.88773 60.8985 1.26587 62.8842 0.733994 64.5826C0.115669 66.5571 -0.38105 68.1432 0.403084 68.6094C1.87846 69.4865 4.00672 67.7438 5.93182 66.1675C7.26946 65.0722 8.50901 64.0572 9.3633 64.0572C10.5382 64.0572 11.6468 64.827 13.324 65.9917C14.6216 66.8927 16.2596 68.0301 18.5319 69.2302C20.6927 70.3714 24.1694 71.4887 26.8897 72.363C28.4318 72.8586 29.7309 73.2761 30.4094 73.5755C31.4777 74.047 31.5587 75.2551 31.625 76.245C31.679 77.0519 31.7233 77.7139 32.2848 77.7139C34.8019 77.7139 37.4755 76.5567 39.7806 75.5589C40.8521 75.0952 41.844 74.6658 42.7036 74.4032C43.3337 74.2107 44.121 73.9975 45.0084 73.7573C47.9366 72.9646 51.9536 71.8771 54.9979 70.2648C60.8097 67.1868 65 61.3672 65 58.6773C65 55.9873 60.6289 50.5699 54.9979 47.7105C50.5156 45.4344 46.8712 44.6067 42.0785 43.5721C39.6346 43.0445 37.0385 42.1558 34.6086 41.324ZM53.956 59.0911C51.8845 59.0911 50.2052 57.4235 50.2052 55.3665C50.2052 53.3095 51.8845 51.6419 53.956 51.6419C56.0275 51.6419 57.7068 53.3095 57.7068 55.3665C57.7068 57.4235 56.0275 59.0911 53.956 59.0911Z" fill="#CFD6EC"/>
<path fill-rule="evenodd" clip-rule="evenodd" d="M99.6086 80.1101C95.4605 78.6901 91.7965 77.4359 90.2 78.4267C89.4667 78.8817 89.5906 80.0403 89.7243 81.291C89.8946 82.8839 90.0808 84.6263 88.5329 85.255C86.4926 86.0839 83.0049 87.5665 80.4062 89.1865C79.1929 89.9429 78.1154 90.7131 77.1814 91.3807C75.6212 92.496 74.4615 93.3249 73.7382 93.3249C72.8423 93.3249 71.6383 92.254 70.358 91.1153C68.6604 89.6053 66.8286 87.976 65.4031 88.5658C64.7079 88.8534 65.201 90.5754 65.7952 92.6507C66.283 94.3542 66.839 96.2957 66.8617 97.8772C66.8877 99.6846 66.2659 101.67 65.734 103.369C65.1157 105.343 64.6189 106.929 65.4031 107.396C66.8785 108.273 69.0067 106.53 70.9318 104.954C72.2695 103.858 73.509 102.843 74.3633 102.843C75.5382 102.843 76.6468 103.613 78.324 104.778C79.6216 105.679 81.2596 106.816 83.5319 108.016C85.6927 109.158 89.1694 110.275 91.8897 111.149C93.4318 111.645 94.7309 112.062 95.4094 112.362C96.4777 112.833 96.5587 114.041 96.625 115.031C96.679 115.838 96.7233 116.5 97.2848 116.5C99.8019 116.5 102.475 115.343 104.781 114.345C105.852 113.881 106.844 113.452 107.704 113.189C108.334 112.997 109.121 112.784 110.008 112.543C112.937 111.751 116.954 110.663 119.998 109.051C125.81 105.973 130 100.153 130 97.4634C130 94.7734 125.629 89.356 119.998 86.4966C115.516 84.2205 111.871 83.3928 107.079 82.3582C104.635 81.8306 102.039 80.9419 99.6086 80.1101ZM118.956 97.8772C116.885 97.8772 115.205 96.2097 115.205 94.1526C115.205 92.0956 116.885 90.4281 118.956 90.4281C121.028 90.4281 122.707 92.0956 122.707 94.1526C122.707 96.2097 121.028 97.8772 118.956 97.8772Z" fill="#EEF1F8"/>
<path fill-rule="evenodd" clip-rule="evenodd" d="M99.6086 2.5381C95.4605 1.1181 91.7965 -0.136167 90.2 0.85465C89.4667 1.30969 89.5906 2.46829 89.7243 3.71901C89.8946 5.3119 90.0808 7.05423 88.5329 7.68302C86.4926 8.51187 83.0049 9.99449 80.4062 11.6145C79.1929 12.3708 78.1154 13.1411 77.1814 13.8087C75.6212 14.9239 74.4615 15.7529 73.7382 15.7529C72.8423 15.7529 71.6383 14.682 70.358 13.5433C68.6604 12.0333 66.8286 10.404 65.4031 10.9938C64.708 11.2814 65.201 13.0034 65.7952 15.0786C66.283 16.7822 66.839 18.7237 66.8617 20.3052C66.8877 22.1126 66.2659 24.0983 65.734 25.7967C65.1157 27.7712 64.6189 29.3574 65.4031 29.8235C66.8785 30.7007 69.0067 28.9579 70.9318 27.3816C72.2695 26.2863 73.509 25.2713 74.3633 25.2713C75.5382 25.2713 76.6468 26.0411 78.324 27.2058C79.6216 28.1068 81.2596 29.2442 83.5319 30.4443C85.6927 31.5855 89.1694 32.7028 91.8897 33.5771C93.4318 34.0727 94.7309 34.4902 95.4094 34.7896C96.4777 35.2611 96.5587 36.4692 96.625 37.4591C96.679 38.266 96.7233 38.928 97.2848 38.928C99.8019 38.928 102.475 37.7708 104.781 36.7731C105.852 36.3093 106.844 35.8799 107.704 35.6173C108.334 35.4248 109.121 35.2116 110.008 34.9714C112.937 34.1787 116.954 33.0912 119.998 31.4789C125.81 28.4009 130 22.5813 130 19.8914C130 17.2014 125.629 11.784 119.998 8.9246C115.516 6.6485 111.871 5.8208 107.079 4.78619C104.635 4.25861 102.039 3.36992 99.6086 2.5381ZM118.956 20.3052C116.885 20.3052 115.205 18.6376 115.205 16.5806C115.205 14.5236 116.885 12.856 118.956 12.856C121.028 12.856 122.707 14.5236 122.707 16.5806C122.707 18.6376 121.028 20.3052 118.956 20.3052Z" fill="#B6C3E5"/>
</svg>
