<svg width="20" height="20" viewBox="0 0 20 20" fill="none" xmlns="http://www.w3.org/2000/svg">
<g clip-path="url(#clip0_1022_2001)">
<path fill-rule="evenodd" clip-rule="evenodd" d="M15.3352 0.463468C13.7859 -0.258978 11.9443 0.411312 11.2219 1.9606C10.6665 3.15167 10.9342 4.5155 11.7917 5.41077C11.4534 5.3822 11.118 5.5636 10.9662 5.88918C10.8676 6.1005 10.8653 6.33202 10.9413 6.53432C10.7375 6.60617 10.5616 6.75675 10.4631 6.96807C10.2686 7.38518 10.449 7.881 10.8662 8.07551L10.9741 8.12582L8.04672 14.4035C7.37985 15.8337 5.6799 16.4524 4.24979 15.7855C2.81967 15.1186 2.20095 13.4187 2.86782 11.9886L3.51518 12.2905L2.67995 9.01118L1.57309 11.3848C0.572783 13.53 1.50088 16.0799 3.64605 17.0802C5.79122 18.0806 8.34114 17.1525 9.34144 15.0073L10.5865 12.3372C10.2273 13.4984 10.2254 13.4261 10.0489 14.6069C9.87002 15.8032 9.9809 16.9032 10.1352 17.702C10.2125 18.1021 10.301 18.4282 10.3706 18.6554L10.4926 19.0154C10.541 19.1377 10.6797 19.1984 10.8019 19.15C10.9241 19.1016 10.984 18.9633 10.9356 18.841L10.8259 18.516C10.7605 18.3025 10.6764 17.9928 10.6028 17.6117C10.4553 16.8483 10.3512 15.805 10.5198 14.6773C10.6582 13.7518 10.945 12.6349 11.2391 11.6292C11.1605 12.4706 11.1573 13.4584 11.3118 14.557C11.5659 16.3642 12.3961 17.6856 13.1606 18.5533C13.5429 18.9872 13.9096 19.3087 14.1818 19.5225L14.6402 19.8475C14.7532 19.9147 14.8993 19.8776 14.9665 19.7646C15.0337 19.6516 14.9959 19.5052 14.883 19.4379L14.4759 19.148C14.2223 18.9489 13.8777 18.6469 13.5179 18.2385C12.7984 17.4218 12.0214 16.1837 11.7834 14.4907C11.6974 13.8796 11.6622 13.3045 11.6623 12.772C11.6957 12.9411 11.7385 13.1108 11.792 13.2804C12.3495 15.0474 14.1437 16.2878 15.0059 16.7975L15.4772 17.0561L15.6665 16.633C15.8898 16.0835 16.2342 15.0579 16.2589 13.9102C16.2589 13.9102 16.448 13.9383 16.6895 13.9731C17.0717 14.0282 17.5853 14.1002 17.6895 14.1047C17.8596 14.1119 18.166 14.1011 18.166 14.1011L18.125 13.6289C18.0177 12.739 17.6378 10.8172 16.3161 9.68191C15.3239 8.8297 14.1973 8.57552 13.402 8.51612C13.4332 8.47322 13.4608 8.4267 13.4841 8.3768C13.5827 8.16548 13.585 7.93396 13.509 7.73166C13.7128 7.65981 13.8887 7.50923 13.9872 7.29791C14.139 6.97233 14.0624 6.59881 13.8231 6.35805C15.0601 6.43944 16.2769 5.76788 16.8323 4.57681C17.5548 3.02752 16.8845 1.18591 15.3352 0.463468ZM13.3227 4.77922C12.4885 4.39021 12.1276 3.39858 12.5166 2.56434C12.9056 1.73011 13.8972 1.36918 14.7315 1.75819C15.5657 2.1472 15.9266 3.13884 15.5376 3.97307C15.1486 4.8073 14.157 5.16823 13.3227 4.77922ZM16.0058 10.0431C15.2156 9.36438 14.3258 9.10453 13.6216 9.01644C13.5066 9.00206 13.3971 8.99233 13.2944 8.98611C14.1083 9.47292 15.2589 10.3769 15.8853 11.8401C16.1076 12.3594 16.216 12.8955 16.249 13.4174C16.3979 13.4556 16.5455 13.4876 16.6895 13.5142C17.0569 13.582 17.3896 13.6127 17.6447 13.6259C17.6095 13.3514 17.548 12.9866 17.4416 12.584C17.2098 11.7063 16.7807 10.7088 16.0058 10.0431ZM15.4476 12.0275C14.9744 10.9224 14.1685 10.1573 13.465 9.6639L12.6026 9.1499C12.4991 9.39358 12.3705 9.73557 12.2625 10.1422C12.0375 10.9894 11.9119 12.078 12.2461 13.1371C12.5749 14.1793 13.4068 15.0496 14.2071 15.677C14.6013 15.986 14.9742 16.2256 15.2482 16.3876L15.2512 16.3893C15.3626 16.1077 15.4994 15.7128 15.6066 15.2499C15.7448 14.6534 15.8288 13.965 15.7592 13.2686C15.7175 12.8518 15.6208 12.4321 15.4476 12.0275ZM11.8724 5.91768L13.3829 6.62205C13.5616 6.70541 13.639 6.9179 13.5556 7.09666C13.4827 7.25308 13.3109 7.33185 13.1493 7.29325C13.1279 7.28815 13.1067 7.28098 13.086 7.27168L13.081 7.26941L11.5705 6.56505L11.5656 6.56272C11.3903 6.47779 11.3152 6.26755 11.3978 6.09043C11.4811 5.91166 11.6936 5.83432 11.8724 5.91768ZM11.3693 6.99657L12.8798 7.70093L12.8847 7.70327C13.06 7.78821 13.1351 7.99843 13.0525 8.17555C12.9692 8.35431 12.7567 8.43165 12.5779 8.3483L11.0674 7.64393C10.8886 7.56057 10.8113 7.34808 10.8947 7.16931C10.9773 6.9922 11.1866 6.91464 11.3643 6.9943L11.3693 6.99657Z" fill="#3E5481"/>
</g>
<defs>
<clipPath id="clip0_1022_2001">
<rect width="20" height="20" fill="white"/>
</clipPath>
</defs>
</svg>
