<svg width="20" height="21" viewBox="0 0 20 21" fill="none" xmlns="http://www.w3.org/2000/svg">
<path fill-rule="evenodd" clip-rule="evenodd" d="M7.65544 3.24974C8.76936 0.860942 11.6046 -0.174549 13.9881 0.936906C16.3716 2.04836 17.4009 4.88588 16.2869 7.27468L14.5861 10.9221C13.575 13.0904 11.1457 14.1437 8.92333 13.4885L7.34284 16.8779C7.03651 17.5348 7.31955 18.3151 7.97502 18.6208C8.63049 18.9264 9.41018 18.6417 9.7165 17.9847L9.96862 17.4441L9.32126 17.1422L12.171 16.1014L11.0112 18.5885C10.3707 19.962 8.74047 20.5574 7.36994 19.9184C6.64329 19.5795 6.13555 18.9617 5.91432 18.2512C5.22787 18.5384 4.42821 18.5466 3.70155 18.2078C2.33103 17.5687 1.73923 15.9371 2.37973 14.5635L3.53946 12.0765L4.57393 14.9285L3.92657 14.6266L3.67445 15.1673C3.36813 15.8242 3.65116 16.6045 4.30663 16.9102C4.9621 17.2158 5.74179 16.9311 6.04811 16.2741L7.62861 12.8848C5.69816 11.6035 4.94351 9.06549 5.9546 6.8972L7.65544 3.24974ZM13.2914 10.3184L14.9922 6.67094C15.772 4.99878 15.0515 3.01252 13.383 2.2345C11.7146 1.45648 9.72991 2.18132 8.95017 3.85348L7.24933 7.50094C6.46959 9.1731 7.19004 11.1594 8.85851 11.9374C10.527 12.7154 12.5116 11.9906 13.2914 10.3184Z" fill="#3E5481"/>
</svg>
