<svg width="20" height="20" viewBox="0 0 20 20" fill="none" xmlns="http://www.w3.org/2000/svg">
<g clip-path="url(#clip0_1022_2000)">
<path d="M11.9306 5.31982C12.4277 5.60685 12.5977 6.24311 12.3103 6.74096C12.0229 7.2388 11.3868 7.4097 10.8897 7.12267C10.3925 6.83564 10.2225 6.19938 10.51 5.70153C10.7974 5.20369 11.4334 5.03279 11.9306 5.31982Z" fill="#3E5481"/>
<path fill-rule="evenodd" clip-rule="evenodd" d="M8.56391 18.9106C8.44606 18.725 8.27895 18.4508 8.08697 18.1037C7.88756 17.7432 7.66257 17.3064 7.4385 16.8105C9.45053 16.3879 11.784 15.506 13.5165 13.6789L16.2585 12.9696L15.5458 10.3989C16.6345 7.73447 16.7897 4.737 15.3037 1.67355C15.3037 1.67355 15.1525 1.42796 14.9999 1.33987C14.8474 1.2518 14.5592 1.24371 14.5592 1.24371C11.1632 1.48851 8.64485 3.12159 6.88176 5.39664L4.2991 6.0648L5.05577 8.79417C4.33977 11.2081 4.74278 13.6699 5.3828 15.6236C4.84131 15.6775 4.35048 15.7011 3.93858 15.7086C3.54204 15.7159 3.22103 15.7083 3.00135 15.699C2.89157 15.6944 2.80728 15.6894 2.75171 15.6856L2.67427 15.6798C2.26596 15.6432 1.90474 15.9446 1.86737 16.3533C1.83 16.7621 2.13083 17.1234 2.53931 17.1603L2.64992 17.1687C2.71728 17.1733 2.8141 17.179 2.93709 17.1842C3.18294 17.1945 3.53408 17.2027 3.96399 17.1948C4.50643 17.1849 5.17806 17.1493 5.9245 17.0591C6.21958 17.7506 6.52457 18.3501 6.78718 18.8248C6.99531 19.2011 7.17798 19.5011 7.30988 19.7088C7.37586 19.8127 7.46685 19.9498 7.46685 19.9498L7.52943 20.0414C7.76563 20.3767 8.22897 20.4565 8.56432 20.2197C8.89955 19.9831 8.97998 19.5195 8.74407 19.1842L8.56391 18.9106ZM7.12961 7.69585C5.71463 10.1675 6.10106 13.1053 6.8781 15.4074C9.26029 14.9293 11.9977 13.7951 13.4307 11.3338C14.9395 8.74258 15.4651 5.80498 14.1722 2.77369C10.9005 3.16963 8.61931 5.09363 7.12961 7.69585Z" fill="#3E5481"/>
</g>
<defs>
<clipPath id="clip0_1022_2000">
<rect width="20" height="20" fill="white"/>
</clipPath>
</defs>
</svg>
