<svg width="36" height="48" viewBox="0 0 36 48" fill="none" xmlns="http://www.w3.org/2000/svg">
<path d="M18 39.0168C17.9738 38.9743 17.9466 38.9307 17.9187 38.8863C17.6172 38.4062 17.2082 37.7981 16.8098 37.3537C15.9714 36.4186 15.5925 36.1049 14.7962 35.6073C14.0959 35.1695 13.1002 34.8266 12.4462 34.6014C12.3438 34.5661 12.2498 34.5337 12.1666 34.5043C5.36899 32.1017 0.5 25.6188 0.5 18C0.5 8.33502 8.33502 0.5 18 0.5C27.665 0.5 35.5 8.33502 35.5 18C35.5 25.6188 30.631 32.1017 23.8334 34.5043C23.7502 34.5337 23.6562 34.5661 23.5538 34.6014C22.8998 34.8266 21.9041 35.1695 21.2038 35.6073C20.4075 36.1049 20.0286 36.4186 19.1902 37.3537C18.7918 37.7981 18.3828 38.4062 18.0813 38.8863C18.0534 38.9307 18.0262 38.9743 18 39.0168ZM20.5 45C20.5 46.3807 19.3807 47.5 18 47.5C16.6193 47.5 15.5 46.3807 15.5 45C15.5 43.6193 16.6193 42.5 18 42.5C19.3807 42.5 20.5 43.6193 20.5 45Z" fill="#FFD71D" stroke="#50250A"/>
</svg>
