<svg width="50" height="62" viewBox="0 0 50 62" fill="none" xmlns="http://www.w3.org/2000/svg">
<g filter="url(#filter0_d_1079_1222)">
<path d="M25 43.0168C24.9738 42.9743 24.9466 42.9307 24.9187 42.8863C24.6172 42.4062 24.2082 41.7981 23.8098 41.3537C22.9714 40.4186 22.5925 40.1049 21.7962 39.6073C21.0959 39.1695 20.1002 38.8266 19.4462 38.6014C19.3438 38.5661 19.2498 38.5337 19.1666 38.5043C12.369 36.1017 7.5 29.6188 7.5 22C7.5 12.335 15.335 4.5 25 4.5C34.665 4.5 42.5 12.335 42.5 22C42.5 29.6188 37.631 36.1017 30.8334 38.5043C30.7502 38.5337 30.6562 38.5661 30.5538 38.6014C29.8998 38.8266 28.9041 39.1695 28.2038 39.6073C27.4075 40.1049 27.0286 40.4186 26.1902 41.3537C25.7918 41.7981 25.3828 42.4062 25.0813 42.8863C25.0534 42.9307 25.0262 42.9743 25 43.0168ZM27.5 49C27.5 50.3807 26.3807 51.5 25 51.5C23.6193 51.5 22.5 50.3807 22.5 49C22.5 47.6193 23.6193 46.5 25 46.5C26.3807 46.5 27.5 47.6193 27.5 49Z" fill="#FFEE9D" stroke="#502306"/>
</g>
<defs>
<filter id="filter0_d_1079_1222" x="0" y="0" width="50" height="62" filterUnits="userSpaceOnUse" color-interpolation-filters="sRGB">
<feFlood flood-opacity="0" result="BackgroundImageFix"/>
<feColorMatrix in="SourceAlpha" type="matrix" values="0 0 0 0 0 0 0 0 0 0 0 0 0 0 0 0 0 0 127 0" result="hardAlpha"/>
<feOffset dy="3"/>
<feGaussianBlur stdDeviation="3.5"/>
<feComposite in2="hardAlpha" operator="out"/>
<feColorMatrix type="matrix" values="0 0 0 0 0 0 0 0 0 0 0 0 0 0 0 0 0 0 0.25 0"/>
<feBlend mode="normal" in2="BackgroundImageFix" result="effect1_dropShadow_1079_1222"/>
<feBlend mode="normal" in="SourceGraphic" in2="effect1_dropShadow_1079_1222" result="shape"/>
</filter>
</defs>
</svg>
